<svg width="40" height="40" viewBox="0 0 40 40" fill="none" xmlns="http://www.w3.org/2000/svg">
<path d="M13.3327 40C17.0127 40 19.9993 37.0133 19.9993 33.3333V26.6666H13.3327C9.65268 26.6666 6.66602 29.6533 6.66602 33.3333C6.66602 37.0133 9.65268 40 13.3327 40Z" fill="#292929"/>
<path d="M6.66602 19.9999C6.66602 16.3199 9.65268 13.3333 13.3327 13.3333H19.9993V26.6666H13.3327C9.65268 26.6666 6.66602 23.6799 6.66602 19.9999Z" fill="#292929"/>
<path d="M6.66602 6.66667C6.66602 2.98667 9.65268 0 13.3327 0H19.9993V13.3333H13.3327C9.65268 13.3333 6.66602 10.3467 6.66602 6.66667Z" fill="#292929"/>
<path d="M20 0H26.6667C30.3467 0 33.3333 2.98667 33.3333 6.66667C33.3333 10.3467 30.3467 13.3333 26.6667 13.3333H20V0Z" fill="#292929"/>
<path d="M33.3333 19.9999C33.3333 23.6799 30.3467 26.6666 26.6667 26.6666C22.9867 26.6666 20 23.6799 20 19.9999C20 16.3199 22.9867 13.3333 26.6667 13.3333C30.3467 13.3333 33.3333 16.3199 33.3333 19.9999Z" fill="#292929"/>
</svg>
