<svg width="40" height="40" viewBox="0 0 40 40" fill="none" xmlns="http://www.w3.org/2000/svg">
<path d="M30.1405 7.57959C27.1005 7.67279 27.1013 12.0464 30.1405 12.1388C33.1805 12.0456 33.1797 7.67199 30.1405 7.57959ZM19.9997 10.2188C14.6117 10.2188 10.2441 14.598 10.2441 20C10.7581 32.9748 29.2429 32.9712 29.7549 20C29.7553 14.598 25.3873 10.2188 19.9997 10.2188ZM19.9997 26.3492C16.5025 26.3492 13.6673 23.5064 13.6673 20C14.0009 11.578 26.0001 11.58 26.3325 20C26.3321 23.5068 23.4969 26.3492 19.9997 26.3492Z" fill="#292929"/>
<path d="M38.8834 12.1673C38.7426 5.50045 34.501 1.25645 27.8326 1.11685C26.2314 0.962452 13.7698 0.959652 12.1674 1.11685C5.5006 1.25765 1.2566 5.49925 1.117 12.1677C0.962603 13.7665 0.959403 26.2321 1.117 27.8329C1.2414 34.4781 5.5214 38.7593 12.1674 38.8833C13.7686 39.0393 26.2302 39.0393 27.8326 38.8833C29.8546 38.7909 31.2358 38.4697 32.4442 38.0001C36.679 36.3085 38.7482 32.5457 38.8834 27.8325C39.0378 26.2313 39.0406 13.7697 38.8834 12.1673ZM27.6766 35.4637C26.101 35.6141 13.9002 35.6165 12.3234 35.4637C10.4714 35.3793 9.4654 35.0697 8.7958 34.8097C3.0162 32.1289 4.8082 26.7077 4.5358 19.2665C4.5418 17.5381 4.5322 14.0521 4.5362 12.3237C4.767 7.17085 7.1938 4.78525 12.3234 4.53645C13.901 4.38605 26.0986 4.38365 27.6766 4.53645C32.831 4.76725 35.2142 7.19405 35.4638 12.3233C35.5658 13.5549 35.6398 20.2781 35.4638 23.6805C35.6538 30.0709 35.3626 35.0889 27.6766 35.4637Z" fill="#292929"/>
</svg>
