<svg width="27" height="26" viewBox="0 0 27 26" fill="none" xmlns="http://www.w3.org/2000/svg">
<path d="M14.8548 25.3479C14.8548 25.3479 14.8548 15.7967 14.8548 15.7963C14.7992 14.0411 15.8484 12.4031 17.9596 12.3295C20.0168 12.3295 20.84 13.8979 20.84 16.1975V25.3475H26.5256V15.5399C26.5256 10.2859 23.7208 7.84107 19.9796 7.84107C16.9124 7.84107 15.5652 9.55507 14.8168 10.7227L14.8548 8.24267H9.16921C9.24321 9.84747 9.16881 25.3479 9.16881 25.3479H14.8548ZM6.02161 17.9303V8.24227H0.335211V25.3475H6.02201C6.02081 23.5515 6.02401 19.7011 6.02161 17.9303ZM3.17961 5.90747C5.16201 5.90747 6.39641 4.59387 6.39641 2.95267C6.38001 -1.00613 -0.00518859 -0.962127 1.14112e-05 2.95227C-0.00438859 4.60627 1.26401 5.92787 3.17961 5.90747Z" fill="white"/>
</svg>
