<svg width="40" height="40" viewBox="0 0 40 40" fill="none" xmlns="http://www.w3.org/2000/svg">
<path d="M19.9909 3.33337C16.6945 3.33337 13.4722 4.31086 10.7314 6.14221C7.99057 7.97357 5.85436 10.5765 4.5929 13.622C3.33144 16.6674 3.00138 20.0185 3.64447 23.2515C4.28756 26.4846 5.8749 29.4543 8.20578 31.7852C10.5367 34.116 13.5064 35.7034 16.7394 36.3465C19.9724 36.9896 23.3235 36.6595 26.3689 35.398C29.4144 34.1366 32.0174 32.0004 33.8487 29.2595C35.6801 26.5187 36.6576 23.2964 36.6576 20C36.6577 17.8113 36.2268 15.6439 35.3893 13.6218C34.5517 11.5996 33.3241 9.7622 31.7764 8.21452C30.2287 6.66684 28.3913 5.43919 26.3692 4.60168C24.347 3.76416 22.1796 3.33319 19.9909 3.33337ZM25.2901 28.5875C25.2277 28.743 25.1328 28.8835 25.0117 28.9993C24.8906 29.1152 24.7461 29.2038 24.588 29.2593C24.4299 29.3148 24.2617 29.3358 24.0947 29.321C23.9278 29.3062 23.766 29.2558 23.6201 29.1733L19.0956 25.6577L16.1918 28.3367C16.1244 28.3865 16.0456 28.4185 15.9626 28.4299C15.8795 28.4412 15.795 28.4315 15.7168 28.4016L16.2734 23.4208L16.2912 23.435L16.3026 23.3366C16.3026 23.3366 24.4443 15.9241 24.776 15.6083C25.1117 15.2933 25.001 15.225 25.001 15.225C25.0201 14.8408 24.3984 15.225 24.3984 15.225L13.6109 22.165L9.11841 20.635C9.11841 20.635 8.42841 20.3875 8.36341 19.8434C8.29508 19.3034 9.14089 19.01 9.14089 19.01L27.0026 11.9142C27.0026 11.9142 28.4709 11.26 28.4709 12.3434L25.2901 28.5875Z" fill="black"/>
</svg>
