<svg width="40" height="40" viewBox="0 0 40 40" fill="none" xmlns="http://www.w3.org/2000/svg">
<path d="M38.568 8.44876C37.2012 9.05596 35.7328 9.46436 34.1916 9.64876C35.7656 8.70596 36.9724 7.21356 37.5408 5.43396C36.0696 6.30676 34.4388 6.94076 32.7016 7.28356C31.312 5.80236 29.3324 4.87676 27.1412 4.87676C22.298 4.81196 18.5744 9.54356 19.7204 14.2308C13.3888 13.9136 7.77564 10.88 4.01644 6.26916C1.96484 9.61476 3.12964 14.3992 6.37484 16.4416C5.12644 16.4016 3.95084 16.0588 2.92404 15.4888C2.87644 19.2108 5.51684 22.3532 9.03564 23.0544C7.95444 23.356 6.70884 23.4032 5.59484 23.1856C6.56484 26.212 9.37844 28.416 12.712 28.4772C9.69804 30.8856 5.47844 32.1412 1.43164 31.6324C17.7044 41.6472 35.6936 28.5264 34.7648 12.392C36.254 11.3168 37.5468 9.97556 38.568 8.44876Z" fill="#292929"/>
</svg>
